<svg width="280" height="240" xmlns="http://www.w3.org/2000/svg">
 <!-- Created with Method Draw - http://github.com/duopixel/Method-Draw/ -->
 <g>
  <title>background</title>
  <rect fill="#fff" id="canvas_background" height="242" width="282" y="-1" x="-1"/>
  <g display="none" overflow="visible" y="0" x="0" height="100%" width="100%" id="canvasGrid">
   <rect fill="url(#gridpattern)" stroke-width="0" y="0" x="0" height="100%" width="100%"/>
  </g>
 </g>
 <g>
  <title>Layer 1</title>
  <path transform="rotate(-0.1838272660970688 166.9687805175686,119.75382995605013) " stroke="#000" id="svg_1" d="m74.120838,230.862871c6.545387,2.960973 15.477827,9.874279 22.394984,7.344919c4.537223,-1.637155 7.192217,-10.90713 10.01118,-15.786689c21.219658,-36.680292 44.281527,-78.400026 61.067697,-114.092215c0,-1.592391 0.963975,-2.823518 -0.468348,-4.98834c9.389891,-13.410973 15.763925,-28.145697 26.022951,-43.069112c3.249096,-4.742153 6.554555,-11.322934 11.111844,-13.2192l8.416795,-3.082472c10.699972,-2.414249 18.51544,-2.331126 25.975635,3.9651c3.782797,3.210416 5.523114,8.505755 9.182147,11.693827c2.474444,2.177565 11.90255,7.533608 15.40852,6.705453c2.72417,-0.645903 4.969198,-3.053731 6.878858,-6.10438l6.649292,-10.779244c1.863996,-3.066457 2.924587,-6.017969 2.055414,-8.374621c-1.118813,-3.034527 -11.388914,-7.041234 -14.827399,-7.667981c-5.045626,-0.949662 -11.026097,0.677957 -16.164684,-0.345317c-10.098702,-2.036912 -14.455695,-7.728718 -17.990692,-16.931569c-24.91512,-12.851358 -58.458254,-21.206824 -97.513738,-10.427547c-10.594282,2.925853 -20.749553,5.145025 -27.714008,11.089506c-1.395818,3.453389 1.364894,4.140956 4.260312,4.099316c-2.264972,1.809929 -5.923911,2.858745 -3.811983,7.108408c23.836249,-9.605747 70.124023,-12.924887 73.267317,6.737483c0.686989,4.377574 -3.773769,10.405129 -6.516257,15.383859c-8.646352,15.706863 -19.211504,28.449498 -26.873862,42.675858c-2.84813,0.140711 -3.496839,1.506071 -5.016571,2.404614c-24.876812,31.851818 -52.076902,71.595444 -75.472215,107.246075c-3.115986,4.742079 -10.49048,11.751374 -9.573925,15.975362c1.3758,6.462489 12.697135,9.471531 19.240718,12.438908l0.000019,0z" stroke-width="1.5" fill="#ffffff"/>
  <path transform="rotate(-89.66255187988281 126.86678314208984,115.44747161865234) " stroke="#000" id="svg_5" d="m227.184894,83.506935c14.671387,-16.868198 17.620424,-39.887482 9.639208,-59.246535l-29.45405,34.347484l-29.034454,-5.644995l-9.620535,-27.968485l29.379559,-34.267711c-20.208985,-5.084298 -42.473133,1.053803 -57.07989,17.85525c-15.404652,17.712828 -17.925643,42.241645 -8.390959,62.142642l-76.778556,87.620873c-48.564956,55.626033 -47.569741,69.862534 -38.183161,78.028549c9.386573,8.160262 23.62023,7.173985 31.7866,-2.212632l117.084361,-133.773293c21.109004,6.80378 45.175954,0.912236 60.651884,-16.881139l-0.000007,-0.000008z" stroke-width="1.5" fill="#ffffff"/>
 </g>
</svg>