<svg width="333" height="140" xmlns="http://www.w3.org/2000/svg">
 <!-- Created with Method Draw - http://github.com/duopixel/Method-Draw/ -->
 <g>
  <title>background</title>
  <rect fill="#fff" id="canvas_background" height="142" width="335" y="-1" x="-1"/>
 </g>
 <g>
  <title>Layer 1</title>
  <path stroke="#000" id="svg_1" d="m291.411059,107.385749c-4.640735,-1.973243 -6.493749,-7.396395 -6.493749,-7.396395s-2.09079,1.228377 -2.09079,-2.221532s2.09079,2.221532 4.181581,-11.098949c0,0 5.796819,-1.72931 4.640735,-16.029879l-1.39386,0c0,0 3.480551,-15.289368 0,-20.468588c-3.484651,-5.179219 -4.874411,-8.629128 -12.536543,-11.098949s-4.870312,-1.977599 -10.441653,-1.724954c-5.571342,0.248289 -10.216176,3.449909 -10.216176,5.174863c0,0 -3.480551,0.248289 -4.870312,1.72931c-1.39386,1.481021 -3.714228,8.380839 -3.714228,10.110149s1.160184,13.320481 2.320367,15.785946l-1.381562,0.492222c-1.160184,14.300569 4.640735,16.029879 4.640735,16.029879c2.086691,13.320481 4.177481,7.64904 4.177481,11.098949s-2.09079,2.221532 -2.09079,2.221532s-1.853014,5.423152 -6.493749,7.396395c-4.640735,1.968887 -30.402553,12.571259 -32.497443,14.792791c-2.09489,2.225888 -1.857114,12.57997 -1.857114,12.57997l110.471628,0c0,0 0.241876,-10.354082 -1.853014,-12.57997c-2.09899,-2.221532 -27.860808,-12.823903 -32.501542,-14.792791zm-51.121876,-0.749223c-0.405859,-0.78407 -0.606739,-1.350343 -0.606739,-1.350343s-1.771022,1.041071 -1.771022,-1.881768s1.771022,1.881768 3.542045,-9.404486c0,0 4.915407,-1.463598 3.931506,-13.586194l-1.180682,0c0,0 0.586241,-2.574364 0.971603,-5.810831c-0.016398,-1.341631 0.024598,-2.770381 0.151685,-4.338522l0.155784,-1.855633c-0.086091,-2.143125 -0.438656,-4.090233 -1.279072,-5.340389c-2.951704,-4.386437 -4.132386,-7.313632 -10.622035,-9.404486c-6.48965,-2.090854 -4.132386,-1.677039 -8.851013,-1.463598c-4.722727,0.209085 -8.658332,2.922839 -8.658332,4.390793c0,0 -2.951704,0.209085 -4.132386,1.463598c-1.110989,1.180461 -2.89021,6.368392 -3.103389,8.210957l0,1.224021c0.192681,2.844432 1.057694,10.66771 1.922707,12.510275l-1.172482,0.418171c-0.979802,12.122596 3.931506,13.586194 3.931506,13.586194c1.771022,11.286255 3.542045,6.481647 3.542045,9.404486s-1.771022,1.881768 -1.771022,1.881768s-1.570143,4.604234 -5.505748,6.268205c-0.250075,0.104543 -0.569843,0.243933 -0.951105,0.400747l0,22.799018l2.357264,0c-0.118888,-5.566898 0.315668,-12.749852 3.058293,-15.655268c1.459454,-1.546361 6.243674,-4.090233 26.04059,-12.466716zm91.543825,-39.447442c-0.163984,-1.646547 -0.520648,-3.114501 -1.19708,-4.120724c-2.947605,-4.390793 -4.132386,-7.313632 -10.617936,-9.404486c-6.493749,-2.090854 -4.132386,-1.677039 -8.855112,-1.463598c-4.718627,0.209085 -8.654233,2.922839 -8.654233,4.390793c0,0 -2.947605,0.209085 -4.132386,1.463598c-1.110989,1.184817 -2.906609,6.411952 -3.107489,8.237093l0.135286,0l0.327967,3.976978c0.081992,1.006223 0.090191,1.899192 0.110689,2.809585c0.368963,2.90106 0.860914,5.880526 1.352864,6.921597l-1.172482,0.418171c-0.979802,12.122596 3.935606,13.586194 3.935606,13.586194c1.771022,11.286255 3.537945,6.481647 3.537945,9.404486s-1.771022,1.881768 -1.771022,1.881768s-0.217278,0.618544 -0.668233,1.47231c19.55504,8.276296 24.298265,10.802745 25.74132,12.344749c2.746725,2.905416 3.177182,10.084014 3.058293,15.655268l1.967803,0l0,-23.112646c-0.065593,-0.026136 -0.155784,-0.065339 -0.213179,-0.091475c-3.931506,-1.668327 -5.505748,-6.268205 -5.505748,-6.268205s-1.775122,1.041071 -1.775122,-1.881768s1.775122,1.881768 3.542045,-9.404486c0,0 3.29607,-0.997512 3.947904,-8.019296l0,-5.344745c-0.0041,-0.078407 -0.0041,-0.143746 -0.012299,-0.222153l-1.184781,0c0,0 0.881412,-3.876791 1.19708,-8.106414l0,-5.122592l0.012299,0z" fill-opacity="null" stroke-opacity="null" stroke-width="1.5" fill="#fff"/>
  <path stroke="#000" id="svg_2" d="m191.463809,79.540382c-3.067533,-19.81252 -17.74555,-34.836631 -35.42936,-34.836631l0,15.322908c12.728314,0.022984 23.022747,12.166389 23.051993,27.175177c-0.029246,15.004957 -10.323679,27.1407 -23.051993,27.171346l0,15.330569c17.68381,-0.015323 32.361827,-15.039434 35.42936,-34.844292l15.240181,0l0,-15.319077l-15.240181,0zm-15.223934,7.661454c0,-13.158547 -9.046624,-23.823291 -20.208676,-23.823291c-8.880899,0 -16.410003,6.765064 -19.120091,16.158006l-22.207122,0l0,15.326738l22.207122,0c2.706838,9.392942 10.235943,16.161837 19.120091,16.161837c11.162052,0 20.208676,-10.668574 20.208676,-23.823291z" fill-opacity="null" stroke-opacity="null" stroke-width="1.5" fill="#fff"/>
  <path id="svg_3" d="m99.136215,48.45911c0,0 4.567723,-21.768412 0,-29.142383c-4.573104,-7.373972 -6.396965,-12.285819 -16.452413,-15.802254s-6.391585,-2.815629 -13.70317,-2.455923c-7.311586,0.353504 -13.407264,4.911847 -13.407264,7.36777c0,0 -4.567723,0.353504 -6.391585,2.462125c-1.829241,2.108621 -4.87439,11.932314 -4.87439,14.39444s1.522574,18.965186 3.045149,22.47542l-1.813101,0.700806c-1.522574,20.360597 6.090298,22.822722 6.090298,22.822722c2.738482,18.965186 5.482344,10.890408 5.482344,15.802254s-2.743862,3.162932 -2.743862,3.162932s-2.431815,7.721274 -8.522113,10.530702c-6.090298,2.803226 -39.898984,17.898472 -42.648226,21.061403c-2.749242,3.169133 -2.437195,17.910875 -2.437195,17.910875l144.978145,0c0,0 0.317427,-14.741742 -2.431815,-17.910875c-2.754622,-3.169133 -36.563308,-18.258178 -42.653606,-21.061403c-6.090298,-2.809427 -8.522113,-10.530702 -8.522113,-10.530702s-2.743862,1.748915 -2.743862,-3.162932s2.743862,3.162932 5.487724,-15.802254c0,0 7.607492,-2.462125 6.090298,-22.822722l-1.829241,0z" fill-opacity="null" stroke-opacity="null" stroke-width="1.5" stroke="#000" fill="#fff"/>
 </g>
</svg>