<svg width="288" height="287" xmlns="http://www.w3.org/2000/svg">
 <!-- Created with Method Draw - http://github.com/duopixel/Method-Draw/ -->
 <g>
  <title>background</title>
  <rect fill="#fff" id="canvas_background" height="289" width="290" y="-1" x="-1"/>
  <g display="none" overflow="visible" y="0" x="0" height="100%" width="100%" id="canvasGrid">
   <rect fill="url(#gridpattern)" stroke-width="0" y="0" x="0" height="100%" width="100%"/>
  </g>
 </g>
 <g>
  <title>Layer 1</title>
  <path id="svg_3" d="m217.750503,0.750002c-38.107936,0 -68.999975,23.506256 -68.999975,52.498117c0,9.906816 3.652094,19.165191 9.935402,27.072926l-9.935402,22.098849l27.663922,-7.198628c11.527814,6.576696 25.810983,10.528727 41.336048,10.528727c38.107911,0 69.000035,-23.506342 69.000035,-52.501875s-30.892123,-52.498117 -69.000035,-52.498117l0.000005,0zm-11.316372,72.658788l-11.523184,11.680592l-31.690154,-32.154201l31.685425,-32.161733l11.527912,11.707307l-20.162326,20.454426l20.162326,20.473609zm34.850607,11.665372l-11.518445,-11.695861l20.16788,-20.450617l-20.16788,-20.45837l11.518445,-11.695866l31.690199,32.131289l-31.690199,32.169425z" fill-opacity="null" stroke-opacity="null" stroke-width="1.5" stroke="#000" fill="#fff"/>
  <path id="svg_2" d="m138.864235,84.092385c-14.866759,-14.440533 -30.901377,-26.008304 -44.054708,-27.58534c-0.71606,-0.102294 -1.457693,-0.161966 -2.241948,-0.179015l-86.566479,0c-1.380972,0 -2.744895,0.537045 -3.71669,1.534413c-0.963271,0.971795 -1.534413,2.335718 -1.534413,3.725214l0,219.506335c0,1.380972 0.537045,2.702272 1.534413,3.708165c0.997369,0.988844 2.310144,1.525889 3.71669,1.525889l156.544246,0c1.380972,0 2.702272,-0.52852 3.699641,-1.525889c0.997369,-0.997369 1.551462,-2.318669 1.551462,-3.708165l0,-146.067614c-0.306883,-16.955266 -13.588081,-35.444945 -28.932214,-50.933994zm18.412959,191.724931l-146.04204,0l0,-209.004129l81.34095,0l0,0.017049c3.546199,-0.213113 6.606501,3.290464 8.950744,11.303511c2.131129,7.629443 2.668174,17.577556 2.65965,24.473891c0.017049,5.055039 -0.230162,8.447797 -0.230162,8.447797l-0.417701,5.557986l5.592084,0.059672c0.025574,0 12.923169,0.153441 25.573554,3.026204c12.155962,2.625552 21.6608,7.859605 22.54735,13.784145c0.034098,0.52852 0.042623,1.05704 0.034098,1.551462l0,140.782413l-0.008525,0z" stroke-width="1.5" stroke="#000" fill="#fff"/>
 </g>
</svg>